<?xml version="1.0" encoding="UTF-8"?>
<svg width="101px" height="13px" viewBox="0 0 101 13" version="1.1" xmlns="http://www.w3.org/2000/svg" xmlns:xlink="http://www.w3.org/1999/xlink">
    <!-- Generator: sketchtool 63 (101010) - https://sketch.com -->
    <title>7CBF13C1-292C-4839-9E01-F23F63BEA460</title>
    <desc>Created with sketchtool.</desc>
    <g id="Styleguide" stroke="none" stroke-width="1" fill="none" fill-rule="evenodd">
        <g transform="translate(-2195.000000, -802.000000)" fill="#6A3834" id="Group-32">
            <g transform="translate(2195.000000, 802.000000)">
                <g id="eataly" transform="translate(0.000000, 0.312500)">
                    <path d="M22.7736802,7.38709016 L20.7480119,7.38709016 L22.7736802,2.60852459 L22.7736802,2.64209016 L24.8322395,7.38709016 L22.7736802,7.38709016 Z M27.6540789,10.1309426 L23.3380481,-3.29894842e-14 L23.0728317,-3.29894842e-14 L22.7736802,0.677172131 L18.7886477,10.1309426 C18.1919109,11.519918 18.0916716,11.8598361 16.4643499,11.8598361 L16.4643499,12.2647541 L21.0137503,12.2647541 L21.0137503,11.8598361 C19.4198418,11.8598361 19.0549082,11.4181557 19.4866679,10.3339344 L20.4164914,8.13192623 L22.7736802,8.13192623 L25.1308689,8.13192623 L26.0941055,10.3339344 C26.5582342,11.4522541 26.1938227,11.8598361 24.566501,11.8598361 L24.566501,12.2647541 L29.9783767,12.2647541 L29.9783767,11.8598361 C28.3520992,11.8598361 28.2513378,11.519918 27.6540789,10.1309426 L27.6540789,10.1309426 Z" id="Fill-4"></path>
                    <path d="M47.464906,3.01584016 L47.0336684,3.01584016 L46.932907,2.64288934 C46.6676907,1.55813525 46.5011473,1.11805328 44.7093706,1.11805328 L42.1203786,1.11805328 L42.1203786,9.55579918 C42.1203786,11.5196516 42.3850729,11.8595697 43.9789815,11.8595697 L43.9789815,12.2660861 L38.7002361,12.2660861 L38.7002361,11.8595697 C40.3265136,11.8595697 40.592252,11.5196516 40.592252,9.55579918 L40.592252,1.11805328 L38.0356289,1.11805328 C36.242286,1.11805328 36.0762647,1.55813525 35.7447443,2.64288934 L35.6779181,3.01584016 L35.2461584,3.01584016 L35.4461148,0.338586066 L47.2649496,0.338586066 L47.464906,3.01584016 Z" id="Fill-6"></path>
                    <path d="M58.5162317,7.38709016 L56.4900414,7.38709016 L58.5162317,2.60852459 L58.5162317,2.64209016 L60.5737469,7.38709016 L58.5162317,7.38709016 Z M63.3637395,10.1309426 L59.1140127,-3.29894842e-14 L58.8477522,-3.29894842e-14 L58.5162317,0.677172131 L54.5646123,10.1309426 C53.9668313,11.519918 53.8665921,11.8598361 52.2063794,11.8598361 L52.2063794,12.2647541 L56.7557798,12.2647541 L56.7557798,11.8598361 C55.1295023,11.8598361 54.7640467,11.4181557 55.2615884,10.3339344 L56.1914119,8.13192623 L58.5162317,8.13192623 L60.9063115,8.13192623 L61.8700702,10.3339344 C62.2997415,11.4522541 61.9687432,11.8598361 60.3424657,11.8598361 L60.3424657,12.2647541 L65.6875151,12.2647541 L65.6875151,11.8598361 C64.0941286,11.8598361 63.9938894,11.519918 63.3637395,10.1309426 L63.3637395,10.1309426 Z" id="Fill-8"></path>
                    <path d="M72.3942,11.859623 C74.0215217,11.859623 74.2543691,11.5197049 74.2543691,9.55478689 L74.2543691,3.04945902 C74.2543691,1.08454098 74.0215217,0.745155738 72.3942,0.745155738 L72.3942,0.339172131 L77.7068806,0.339172131 L77.7068806,0.745155738 C76.0806031,0.745155738 75.8153867,1.08454098 75.8153867,3.04945902 L75.8153867,9.2495 C75.8153867,11.214418 76.0806031,11.5543361 77.7068806,11.5543361 L80.0317004,11.5543361 C81.7905861,11.5543361 82.0229115,11.0801557 82.2568031,10.0295 L82.3554761,9.62351639 L82.7877579,9.62351639 L82.6551497,12.264541 L72.3942,12.264541 L72.3942,11.859623 Z" id="Fill-10"></path>
                    <path d="M94.2287115,9.55595902 C94.2287115,11.5198115 94.4610368,11.8597295 96.0549454,11.8597295 L96.0549454,12.2662459 L90.808569,12.2662459 L90.808569,11.8597295 C92.4358906,11.8597295 92.6687381,11.5198115 92.6687381,9.55595902 L92.6687381,7.62407377 L89.4135727,2.47309016 C88.5855546,1.18481148 87.9882957,0.744729508 86.6256684,0.744729508 L86.6256684,0.338745902 L92.1701522,0.338745902 L92.1701522,0.744729508 C90.5109837,0.744729508 90.5109837,1.35477049 91.1082426,2.236 L93.930082,6.64054918 L96.7858567,2.236 C97.4509859,1.18481148 97.3502246,0.744729508 95.723425,0.744729508 L95.723425,0.338745902 L100.272303,0.338745902 L100.272303,0.744729508 C98.6460258,0.744729508 98.2461129,1.32067213 97.4509859,2.47309016 L94.2287115,7.45411475 L94.2287115,9.55595902 Z" id="Fill-12"></path>
                    <path d="M1.76179391e-13,11.8848238 C1.61426968,11.8848238 1.84868336,11.5427746 1.84868336,9.55281557 L1.84868336,2.9665041 C1.84868336,0.977077869 1.61426968,0.633963115 1.76179391e-13,0.633963115 L1.76179391e-13,0.223717213 L9.00795894,0.223717213 L9.17659061,2.89777459 L8.77406735,2.89777459 L8.67278393,2.48646311 C8.36893369,1.4224877 8.20186826,0.977077869 6.38659799,0.977077869 L3.42849579,0.977077869 L3.42849579,5.53933197 L4.4371533,5.53933197 C6.42053316,5.53933197 6.72281716,5.30011066 6.72281716,3.58453689 L7.15979767,3.58453689 L7.15979767,8.2149877 L6.72281716,8.2149877 C6.72281716,6.53457787 6.42053316,6.2937582 4.4371533,6.2937582 L3.42849579,6.2937582 L3.42849579,9.24433197 C3.42849579,11.2337582 3.69788879,11.576873 5.3445274,11.576873 L7.05903633,11.576873 C8.8743066,11.576873 9.07635135,11.0973648 9.31128711,10.0333893 L9.41204844,9.62154508 L9.81561586,9.62154508 L9.68091936,12.2977336 L1.76179391e-13,12.2977336 L1.76179391e-13,11.8848238 Z" id="Fill-30"></path>
                </g>
            </g>
        </g>
    </g>
</svg>